<svg width="24" height="24" viewBox="0 0 24 24" fill="none" xmlns="http://www.w3.org/2000/svg">
<g clip-path="url(#clip0_72_177)">
<path d="M3.88992 15.6719L6.25492 0.460936C6.27188 0.348104 6.32402 0.243503 6.40391 0.162035C6.48379 0.0805674 6.58735 0.0263887 6.69983 0.00721757C6.81231 -0.0119535 6.92796 0.00486096 7.03033 0.0552655C7.13269 0.10567 7.21654 0.187094 7.26992 0.287936L9.81292 5.05894L3.88992 15.6719ZM20.6839 19.3639L18.4339 5.36394C18.4185 5.265 18.3759 5.1723 18.3108 5.09619C18.2457 5.02009 18.1608 4.96357 18.0654 4.93297C17.9701 4.90237 17.8681 4.89887 17.7709 4.92288C17.6737 4.94689 17.585 4.99746 17.5149 5.06894L3.31592 19.3649L11.1719 23.7919C11.4144 23.9282 11.6878 23.9997 11.9659 23.9997C12.244 23.9997 12.5175 23.9282 12.7599 23.7919L20.6839 19.3639ZM14.2999 7.14694L12.4799 3.66494C12.434 3.57737 12.365 3.50404 12.2804 3.45287C12.1958 3.4017 12.0988 3.37466 11.9999 3.37466C11.901 3.37466 11.8041 3.4017 11.7194 3.45287C11.6348 3.50404 11.5658 3.57737 11.5199 3.66494L3.52992 17.9839L14.2999 7.14694Z" fill="white"/>
</g>
<defs>
<clipPath id="clip0_72_177">
<rect width="24" height="24" fill="white"/>
</clipPath>
</defs>
</svg>
