<svg width="24" height="24" viewBox="0 0 24 24" fill="none" xmlns="http://www.w3.org/2000/svg">
<path d="M12 0C5.372 0 0 5.372 0 12C0 18.628 5.372 24 12 24C18.628 24 24 18.628 24 12C24 5.372 18.628 0 12 0ZM17.696 14.943C13.593 19.046 6.263 17.737 6.263 17.737C6.263 17.737 4.94 10.421 9.057 6.304C11.338 4.023 15.118 4.117 17.507 6.493C19.896 8.869 19.978 12.661 17.696 14.943ZM13.377 7.033L12.203 9.449L9.787 10.623L12.203 11.797L13.377 14.213L14.551 11.797L16.967 10.623L14.551 9.449L13.377 7.033Z" fill="white"/>
</svg>
