<svg width="24" height="24" viewBox="0 0 24 24" fill="none" xmlns="http://www.w3.org/2000/svg">
<g clip-path="url(#clip0_72_187)">
<path d="M20.229 15.793C20.3302 15.7347 20.4144 15.6509 20.473 15.55C20.5317 15.4488 20.5628 15.3339 20.563 15.217L20.575 11.359C20.5752 11.242 20.6063 11.1271 20.665 11.026C20.7239 10.9248 20.8084 10.841 20.91 10.783L23 9.57996C23.1014 9.52198 23.2162 9.49163 23.333 9.49196C23.45 9.49224 23.5648 9.52328 23.666 9.58196C23.7672 9.6402 23.8513 9.72399 23.91 9.82496C23.9684 9.92622 23.9991 10.0411 23.999 10.158V17.172C23.9989 17.2892 23.9679 17.4044 23.9091 17.5059C23.8503 17.6074 23.7657 17.6916 23.664 17.75L15.771 22.284C15.6702 22.3417 15.5561 22.372 15.44 22.372C15.3239 22.372 15.2098 22.3417 15.109 22.284L8.915 18.742C8.81294 18.6837 8.72808 18.5995 8.669 18.498C8.60998 18.3962 8.57893 18.2806 8.579 18.163V14.626C8.579 14.622 8.583 14.62 8.587 14.622C8.591 14.624 8.595 14.622 8.595 14.617V14.613C8.595 14.61 8.597 14.608 8.599 14.606L13.701 11.676C13.705 11.673 13.703 11.666 13.698 11.666C13.6972 11.666 13.6965 11.6658 13.6958 11.6654C13.6951 11.6651 13.6945 11.6646 13.694 11.664C13.6936 11.6634 13.6932 11.6628 13.6931 11.6621C13.6929 11.6614 13.6929 11.6607 13.693 11.66L13.703 8.19296C13.7035 8.07552 13.6729 7.96005 13.6144 7.8582C13.556 7.75636 13.4717 7.67176 13.37 7.61296C13.2686 7.55442 13.1536 7.5236 13.0365 7.5236C12.9194 7.5236 12.8044 7.55442 12.703 7.61296L8.912 9.79896C8.81084 9.85713 8.69619 9.88774 8.5795 9.88774C8.46281 9.88774 8.34816 9.85713 8.247 9.79896L4.443 7.60896C4.34169 7.55081 4.22689 7.5203 4.11008 7.52046C3.99327 7.52062 3.87855 7.55145 3.7774 7.60988C3.67625 7.6683 3.59222 7.75226 3.53371 7.85336C3.4752 7.95446 3.44426 8.06915 3.444 8.18596V14.453C3.44404 14.5698 3.4134 14.6846 3.35513 14.7858C3.29687 14.8871 3.21303 14.9713 3.112 15.03C3.01113 15.0885 2.89664 15.1195 2.78 15.12C2.66321 15.1203 2.54838 15.0899 2.447 15.032L0.336001 13.825C0.233939 13.7667 0.149076 13.6825 0.0900015 13.581C0.0308111 13.4789 -0.000245003 13.3629 1.45555e-06 13.245L0.0190015 2.29196C0.0193641 2.17529 0.0503193 2.06077 0.108777 1.95981C0.167235 1.85885 0.251151 1.77499 0.352149 1.71659C0.453147 1.6582 0.567694 1.62732 0.684357 1.62703C0.80102 1.62674 0.915717 1.65706 1.017 1.71496L8.247 5.86796C8.34816 5.92613 8.46281 5.95674 8.5795 5.95674C8.69619 5.95674 8.81084 5.92613 8.912 5.86796L16.14 1.71496C16.2414 1.65693 16.3562 1.62658 16.473 1.62696C16.59 1.62719 16.7048 1.65823 16.806 1.71696C16.9073 1.77548 16.9915 1.85963 17.05 1.96096C17.108 2.06234 17.1383 2.17717 17.138 2.29396V13.25C17.138 13.367 17.108 13.482 17.049 13.584C16.9902 13.6854 16.9057 13.7696 16.804 13.828L13.019 16.008C12.9172 16.0666 12.8327 16.1511 12.774 16.253C12.7155 16.3545 12.6848 16.4697 12.685 16.587C12.6851 16.7043 12.7162 16.8195 12.775 16.921C12.8343 17.0227 12.9195 17.1069 13.022 17.165L15.11 18.354C15.2106 18.411 15.3243 18.4409 15.44 18.441C15.5565 18.4408 15.671 18.4101 15.772 18.352L20.229 15.792V15.793ZM20.667 5.96496C20.6669 6.08261 20.6979 6.1982 20.757 6.29996C20.8166 6.40183 20.9022 6.48603 21.005 6.54396C21.1075 6.60185 21.2234 6.6316 21.3411 6.63019C21.4588 6.62879 21.574 6.59628 21.675 6.53596L23.676 5.33596C23.7747 5.27679 23.8563 5.19307 23.913 5.09296C23.97 4.99266 23.9999 4.8793 24 4.76396V2.31996C23.9998 2.20222 23.9684 2.08663 23.909 1.98496C23.8495 1.88327 23.7641 1.79917 23.6615 1.7412C23.5589 1.68324 23.4428 1.65348 23.325 1.65496C23.2073 1.65628 23.0921 1.68871 22.991 1.74896L20.991 2.94896C20.892 3.00799 20.81 3.09172 20.753 3.19196C20.6964 3.29237 20.6668 3.40571 20.667 3.52096V5.96596V5.96496Z" fill="white"/>
</g>
<defs>
<clipPath id="clip0_72_187">
<rect width="24" height="24" fill="white"/>
</clipPath>
</defs>
</svg>
