<svg width="24" height="24" viewBox="0 0 24 24" fill="none" xmlns="http://www.w3.org/2000/svg">
<g clip-path="url(#clip0_72_189)">
<path d="M11.9979 23.9998C11.6769 23.9998 11.3569 23.9158 11.0759 23.7528L8.13991 22.0158C7.70191 21.7708 7.91591 21.6838 8.05991 21.6328C8.64491 21.4298 8.76291 21.3828 9.38791 21.0288C9.45291 20.9918 9.53891 21.0058 9.60591 21.0458L11.8619 22.3848C11.9439 22.4298 12.0589 22.4298 12.1339 22.3848L20.9289 17.3088C21.0109 17.2618 21.0629 17.1678 21.0629 17.0708V6.92076C21.0629 6.82176 21.0099 6.72876 20.9259 6.67876L12.1349 1.60676C12.0539 1.55976 11.9459 1.55976 11.8639 1.60676L3.07491 6.67976C2.98991 6.72876 2.93591 6.82476 2.93591 6.92076V17.0708C2.93591 17.1678 2.98991 17.2598 3.07491 17.3058L5.48391 18.6978C6.79091 19.3518 7.59191 18.5818 7.59191 17.8078V7.78676C7.59191 7.64476 7.70591 7.53376 7.84791 7.53376H8.96291C9.10191 7.53376 9.21791 7.64576 9.21791 7.78676V17.8078C9.21791 19.5528 8.26791 20.5528 6.61391 20.5528C6.10591 20.5528 5.70491 20.5528 4.58791 20.0018L2.27991 18.6748C1.70991 18.3458 1.35791 17.7298 1.35791 17.0708V6.92076C1.35791 6.26176 1.71091 5.64576 2.27991 5.31776L11.0749 0.235762C11.6319 -0.0792383 12.3709 -0.0792383 12.9229 0.235762L21.7169 5.31776C22.2869 5.64676 22.6409 6.26176 22.6409 6.92076V17.0708C22.6409 17.7298 22.2869 18.3438 21.7169 18.6748L12.9229 23.7528C12.6429 23.9158 12.3239 23.9998 11.9979 23.9998ZM19.0989 13.9928C19.0989 12.0928 17.8149 11.5868 15.1119 11.2298C12.3809 10.8688 12.1029 10.6818 12.1029 10.0428C12.1029 9.51476 12.3379 8.80976 14.3609 8.80976C16.1679 8.80976 16.8339 9.19876 17.1079 10.4168C17.1319 10.5318 17.2369 10.6158 17.3549 10.6158H18.4959C18.5669 10.6158 18.6339 10.5848 18.6819 10.5348C18.7299 10.4808 18.7559 10.4118 18.7489 10.3388C18.5719 8.24076 17.1779 7.26276 14.3609 7.26276C11.8529 7.26276 10.3569 8.32076 10.3569 10.0958C10.3569 12.0208 11.8449 12.5528 14.2519 12.7908C17.1319 13.0728 17.3549 13.4938 17.3549 14.0598C17.3549 15.0428 16.5659 15.4618 14.7129 15.4618C12.3859 15.4618 11.8739 14.8778 11.7019 13.7198C11.6819 13.5958 11.5759 13.5048 11.4489 13.5048H10.3119C10.1709 13.5048 10.0579 13.6168 10.0579 13.7578C10.0579 15.2398 10.8639 17.0058 14.7129 17.0058C17.5009 17.0068 19.0989 15.9098 19.0989 13.9928Z" fill="white"/>
</g>
<defs>
<clipPath id="clip0_72_189">
<rect width="24" height="24" fill="white"/>
</clipPath>
</defs>
</svg>
