<svg width="1440" height="900" viewBox="0 0 1440 900" fill="none" xmlns="http://www.w3.org/2000/svg">
<g clip-path="url(#clip0_65_2)">
<rect width="1440" height="900" fill="white"/>
<mask id="mask0_65_2" style="mask-type:alpha" maskUnits="userSpaceOnUse" x="0" y="0" width="1440" height="911">
<rect width="1440" height="910.5" fill="#C4C4C4"/>
</mask>
<g mask="url(#mask0_65_2)">
<rect width="1438.19" height="807.804" transform="matrix(1.00126 -0.00239676 0.00303087 0.998405 -0.966797 -103.133)" fill="#0E0B15"/>
<mask id="mask1_65_2" style="mask-type:alpha" maskUnits="userSpaceOnUse" x="-174" y="-487" width="2049" height="1731">
<rect width="1556.79" height="1167.19" transform="matrix(-0.8631 0.521625 -0.602838 -0.786541 1874.04 431.142)" fill="url(#paint0_linear_65_2)"/>
</mask>
<g mask="url(#mask1_65_2)">
<path d="M1397.75 189.024C1328.17 199.498 1250.42 221.677 1174.01 197.799C1111.37 178.266 1056.52 145.465 990.949 123.316C872.964 83.4596 767.941 117.007 698.407 131.089C557.278 159.716 396.862 85.3258 256.273 121.224C206.739 133.86 164.865 160.598 129.108 193.107C17.9578 294.402 29.7411 319.548 -17.5019 387.771C-43.4621 425.272 -77.023 462.767 -119.838 483.841C-136.302 491.976 -155.041 496.172 -170.695 505.595C-188.569 516.298 -200.248 536.636 -210.221 556.481C-212.392 560.832 -221.138 573.22 -219.942 578.221L299.194 1357.81C299.194 1357.81 1803.64 481.5 1806.81 486.548C1809.95 491.545 1761.51 225.742 1761.51 225.742C1687.86 204.094 1575.53 162.227 1397.75 189.024Z" fill="#4F8BFF"/>
<g filter="url(#filter0_f_65_2)">
<path d="M1397.75 189.023C1328.17 199.498 1250.42 221.676 1174.01 197.799C1111.37 178.266 1056.52 145.464 990.951 123.316C872.966 83.4593 784.196 138.213 714.662 152.295C573.533 180.922 413.117 106.531 272.528 142.43C222.994 155.066 181.12 181.804 145.363 214.313C34.2124 315.608 29.7428 319.548 -17.5002 387.77C-43.4604 425.271 -77.0214 462.766 -119.836 483.841C-136.3 491.976 -155.04 496.172 -170.694 505.595C-188.568 516.298 -200.247 536.636 -210.219 556.48C-212.39 560.831 -221.136 573.22 -219.94 578.221L237.184 1423.09C237.184 1423.09 1741.63 546.773 1744.8 551.822C1747.94 556.819 1761.51 225.741 1761.51 225.741C1687.86 204.093 1575.53 162.226 1397.75 189.023Z" fill="#4F8BFF"/>
</g>
<g filter="url(#filter1_f_65_2)">
<path d="M1409.61 161.174C1340.02 171.649 1262.27 193.827 1185.87 169.95C1123.22 150.417 1068.37 117.615 1002.8 95.4667C884.818 55.6102 784.194 138.213 714.66 152.295C573.531 180.922 423.951 120.669 283.362 156.567C233.828 169.204 191.954 195.941 156.197 228.45C45.0465 329.745 29.7415 319.548 -17.5015 387.77C-43.4617 425.271 -77.0227 462.766 -119.837 483.841C-136.301 491.976 -155.041 496.172 -170.695 505.595C-188.569 516.298 -200.248 536.636 -210.22 556.481C-212.392 560.831 -221.138 573.22 -219.941 578.221L287.222 1402.09C287.222 1402.09 1791.66 525.78 1794.84 530.828C1797.98 535.825 1761.51 225.741 1761.51 225.741C1687.86 204.093 1587.38 134.377 1409.61 161.174Z" fill="#4F8BFF"/>
</g>
<g filter="url(#filter2_f_65_2)">
<path d="M1409.61 161.173C1340.02 171.648 1262.27 193.826 1185.87 169.949C1123.23 150.416 1068.37 117.614 1002.81 95.4658C884.821 55.6092 786.229 140.862 716.695 154.944C575.566 183.572 480.163 194.005 339.574 229.904C290.039 242.54 248.165 269.278 212.409 301.786C101.258 403.082 29.7446 319.547 -17.4984 387.77C-43.4586 425.27 -77.0195 462.766 -119.834 483.84C-136.298 491.975 -155.038 496.171 -170.692 505.594C-188.566 516.297 -200.245 536.635 -210.217 556.48C-212.388 560.83 -221.135 573.219 -219.938 578.22L255.558 1377.92C255.558 1377.92 1760 501.607 1763.17 506.655C1766.32 511.652 1761.51 225.74 1761.51 225.74C1687.86 204.092 1587.39 134.376 1409.61 161.173Z" fill="#4F8BFF"/>
</g>
<g filter="url(#filter3_f_65_2)">
<path d="M1409.61 161.173C1340.02 171.647 1262.27 193.826 1185.87 169.948C1123.23 150.415 1068.37 117.614 1002.81 95.4652C884.82 55.6087 786.229 140.862 716.695 154.944C575.566 183.571 480.162 194.005 339.573 229.903C290.039 242.539 248.165 269.277 212.408 301.786C101.258 403.081 29.7441 319.546 -17.4989 387.769C-43.4591 425.27 -77.02 462.765 -119.835 483.839C-136.299 491.974 -155.039 496.171 -170.693 505.593C-188.566 516.297 -200.245 536.634 -210.218 556.479C-212.389 560.83 -221.135 573.218 -219.939 578.22L346.519 1372.08C346.519 1372.08 1850.96 495.761 1854.14 500.81C1857.28 505.807 1761.51 225.74 1761.51 225.74C1687.86 204.092 1587.39 134.376 1409.61 161.173Z" fill="#4F8BFF"/>
</g>
</g>
<mask id="mask2_65_2" style="mask-type:alpha" maskUnits="userSpaceOnUse" x="-221" y="104" width="2028" height="1254">
<path d="M1397.75 189.021C1328.17 199.496 1250.42 221.674 1174.01 197.797C1111.37 178.264 1056.52 145.462 990.95 123.314C872.965 83.4572 767.942 117.004 698.408 131.086C557.279 159.714 396.863 85.3234 256.274 121.222C206.74 133.858 164.866 160.596 129.109 193.104C17.9588 294.4 29.7421 319.546 -17.5009 387.768C-43.4611 425.269 -77.022 462.764 -119.837 483.838C-136.301 491.973 -155.041 496.17 -170.695 505.593C-188.568 516.296 -200.247 536.634 -210.22 556.478C-212.391 560.829 -221.137 573.218 -219.941 578.219L299.195 1357.81C299.195 1357.81 1803.64 481.497 1806.81 486.545C1809.96 491.542 1761.51 225.739 1761.51 225.739C1687.86 204.091 1575.53 162.224 1397.75 189.021Z" fill="#4F8BFF"/>
</mask>
<g mask="url(#mask2_65_2)">
<g filter="url(#filter4_f_65_2)">
<path d="M33 176.019C33 168.819 18.5 123.019 11.25 101.019L41.25 54.8942C180.375 46.8942 464.1 31.3442 486 33.1442C507.9 34.9442 644.625 79.1442 710.25 101.019C674.125 109.769 593.475 127.869 559.875 130.269C517.875 133.269 452.625 119.019 324.75 115.269C196.875 111.519 114.375 189.144 62.25 224.394C10.125 259.644 33 185.019 33 176.019Z" fill="#ACFFF5" fill-opacity="0.82"/>
</g>
</g>
<mask id="mask3_65_2" style="mask-type:alpha" maskUnits="userSpaceOnUse" x="-628" y="119" width="2239" height="705">
<path d="M-627.049 823.829L981.536 809.991L1610.45 528.426L376.428 119.98L-393.034 300.209L-627.049 823.829Z" fill="black"/>
</mask>
<g mask="url(#mask3_65_2)">
<mask id="mask4_65_2" style="mask-type:alpha" maskUnits="userSpaceOnUse" x="-898" y="-69" width="2285" height="1000">
<path d="M1291.24 -68.0518L1386.73 884.677L-655.148 930.343C-740.336 732.926 -907.988 337.066 -897.089 332.962C-886.191 328.857 566.341 63.9091 1291.24 -68.0518Z" fill="url(#paint1_linear_65_2)"/>
</mask>
<g mask="url(#mask4_65_2)">
<mask id="mask5_65_2" style="mask-type:alpha" maskUnits="userSpaceOnUse" x="-879" y="74" width="2206" height="768">
<path d="M1326.39 699.836C1265 430.937 1186.57 87.9181 1185.73 74.3744L-878.895 215.928L-738.236 841.39L1326.39 699.836Z" fill="url(#paint2_linear_65_2)"/>
</mask>
<g mask="url(#mask5_65_2)">
<path d="M297.885 240.697C135.77 251.812 21.1315 357.483 40.5524 443.841C59.9734 530.199 151.084 639.029 325.019 627.104C411.213 621.195 528.85 671.748 621.583 621.722C715.983 570.798 665.791 454.641 655.995 411.077C636.574 324.719 459.999 229.582 297.885 240.697Z" fill="#3DC5FF"/>
<g filter="url(#filter5_f_65_2)">
<path d="M298.698 242.131C112.419 254.903 3.14857 370.967 24.7061 466.825C46.2637 562.684 144.836 683.663 331.116 670.892C423.427 664.563 550.481 723.45 649.418 668.195C750.134 611.948 695.346 482.948 684.471 434.592C662.913 338.733 484.978 229.36 298.698 242.131Z" fill="#3DC5FF"/>
</g>
<g filter="url(#filter6_f_65_2)">
<path d="M295.965 257.026C204.758 224.822 -59.7633 384.462 -39.3028 475.442C-18.8424 566.423 91.255 680.111 311.897 664.983C421.236 657.487 570.109 720.044 689.824 665.832C811.69 610.645 751.985 480.925 741.664 435.03C721.203 344.05 409.64 202.746 295.965 257.026Z" fill="#3DC5FF"/>
</g>
<g filter="url(#filter7_f_65_2)">
<path d="M282.983 294.54C47.1834 332.344 -126.766 458.679 -103.902 560.35C-81.0372 662.02 65.7937 763.559 299.499 747.536C415.311 739.596 589.109 840.199 715.318 780.135C843.794 718.993 780.76 582.51 769.226 531.222C746.362 429.551 556.143 250.746 282.983 294.54Z" fill="#3DC5FF"/>
</g>
<g filter="url(#filter8_f_65_2)">
<path d="M154.811 305.53C1.54287 360.439 -334.379 515.626 -310.828 620.348C-287.277 725.069 358.679 749.525 610.318 732.272C735.017 723.722 895.414 753.307 1031.84 691C1170.72 627.574 971.955 508.409 814.563 403.619C605.558 264.466 301.056 211.954 154.811 305.53Z" fill="#3DC5FF"/>
</g>
<g filter="url(#filter9_f_65_2)">
<path d="M324.002 322.335C63.9563 340.165 -386.599 594.401 -362.512 701.51C-338.424 808.619 162.125 820.755 422.171 802.925C551.036 794.09 915.581 856.024 1056.69 792.189C1200.33 727.208 1095.12 651.263 1082.97 597.232C1058.88 490.123 584.048 304.506 324.002 322.335Z" fill="#3DC5FF"/>
</g>
<g filter="url(#filter10_f_65_2)">
<path d="M324.002 322.335C63.9563 340.165 -386.599 594.401 -362.512 701.51C-338.424 808.619 162.125 820.755 422.171 802.925C551.036 794.09 915.581 856.024 1056.69 792.189C1200.33 727.208 1095.12 651.263 1082.97 597.232C1058.88 490.123 584.048 304.506 324.002 322.335Z" fill="#3DC5FF"/>
</g>
<g filter="url(#filter11_f_65_2)">
<path d="M324.002 322.335C63.9563 340.165 -386.599 594.401 -362.512 701.51C-338.424 808.619 162.125 820.755 422.171 802.925C551.036 794.09 915.581 856.024 1056.69 792.189C1200.33 727.208 1095.12 651.263 1082.97 597.232C1058.88 490.123 584.048 304.506 324.002 322.335Z" fill="#3DC5FF"/>
</g>
<g filter="url(#filter12_f_65_2)">
<path d="M324.002 322.335C63.9563 340.165 -386.599 594.401 -362.512 701.51C-338.424 808.619 162.125 820.755 422.171 802.925C551.036 794.09 915.581 856.024 1056.69 792.189C1200.33 727.208 1095.12 651.263 1082.97 597.232C1058.88 490.123 584.048 304.506 324.002 322.335Z" fill="#3DC5FF"/>
</g>
<g filter="url(#filter13_f_65_2)">
<path d="M294.07 242.449C66.5294 258.05 -97.6157 412.626 -73.5281 519.736C-49.4405 626.845 95.4914 734.484 323.032 718.884C435.789 711.153 618.574 725.598 740.544 663.075C864.705 599.429 786.854 485.549 774.703 431.518C750.615 324.409 521.61 226.849 294.07 242.449Z" fill="#3DC5FF"/>
</g>
</g>
</g>
</g>
<g filter="url(#filter14_f_65_2)">
<ellipse rx="330.173" ry="269.27" transform="matrix(0.997717 0.0675329 -0.0855255 0.996336 739.301 591.391)" fill="#492CFF"/>
</g>
<g filter="url(#filter15_f_65_2)">
<path d="M1595.56 211.92C1661.7 193.766 1788.64 178.923 1976.34 231.166L2006.51 852.777L11.166 835.98L-32.2689 564.778C-84.3564 576.879 -60.8939 570.206 -32.5946 562.744L-32.2689 564.778C-7.02648 558.914 35.959 548.64 104.736 531.91C368.106 467.844 435.333 352.347 498.395 293.84C570.132 227.285 653.339 361.525 769.62 357.016C833.515 354.538 860.84 329.693 936.179 271.502C1011.52 213.311 1066.84 137.472 1248.58 198.449C1430.33 259.425 1529.43 230.073 1595.56 211.92Z" fill="#3DC5FF"/>
</g>
<g filter="url(#filter16_f_65_2)">
<path d="M1595.56 211.92C1661.7 193.766 1788.64 178.923 1976.34 231.166L2006.92 848.029L11.1661 835.98L-35.0685 512.436C-77.0821 523.513 -100.938 488.456 110.78 457.961C380.331 419.136 468.692 331.477 589.724 255.262C698.394 232.172 652.658 347.686 768.939 343.177C832.834 340.7 860.84 329.693 936.179 271.502C1011.52 213.311 1066.84 137.472 1248.58 198.449C1430.33 259.425 1529.43 230.073 1595.56 211.92Z" fill="#3DC5FF"/>
</g>
<g filter="url(#filter17_f_65_2)">
<path d="M1615.5 250.925C1682.88 236.821 1810.67 229.703 1993.92 293.196L1940.99 909.811L-13.1487 777.541L-34.4169 451.95C-77.1836 460.456 -98.2902 424.035 115.277 406.438C387.183 384.034 482.073 301.932 608.679 233.228C718.87 216.776 664.366 329.25 780.722 331.796C844.659 333.195 873.445 323.911 953.08 270.42C1032.71 216.928 1093.73 144.618 1270.37 216.464C1447 288.309 1548.13 265.03 1615.5 250.925Z" fill="#3DC5FF"/>
</g>
<g filter="url(#filter18_f_65_2)">
<path d="M1595.56 211.92C1661.7 193.766 1788.64 178.923 1976.34 231.166L1963.98 875.511L23.9018 795.994L-20.9717 500.127C-62.9853 511.204 -101.724 480.684 116.358 469.292C413.015 453.796 434.25 395.212 497.312 336.704C569.048 270.15 653.771 370.318 770.052 365.809C833.947 363.331 860.841 329.693 936.18 271.502C1011.52 213.31 1066.84 137.472 1248.58 198.449C1430.33 259.425 1529.43 230.073 1595.56 211.92Z" fill="#3DC5FF"/>
</g>
<g filter="url(#filter19_f_65_2)">
<path d="M1595.56 211.919C1661.7 193.766 1788.64 178.923 1976.34 231.166L1923.02 852.335L11.1657 835.98L-29.1936 528.831C-81.2074 540.914 -57.7516 534.242 -29.4626 526.784L-29.1936 528.831C-3.95895 522.968 39.0394 512.692 107.867 495.949C371.238 431.883 437.991 406.404 501.054 347.897C572.79 281.342 652.658 347.686 768.939 343.177C832.834 340.699 860.84 329.693 936.179 271.502C1011.52 213.31 1066.84 137.472 1248.58 198.448C1430.33 259.425 1529.43 230.073 1595.56 211.919Z" fill="#3DC5FF"/>
</g>
<path d="M1240.79 40.0273C1422.53 101.004 1521.63 71.652 1587.77 53.4983L1608.72 856.674L-48.1985 744.522L-32.7799 564.897C-84.2029 576.836 -60.8015 570.182 -32.5951 562.745L-32.7799 564.897C-7.60811 559.053 35.4926 548.754 104.735 531.91C368.106 467.844 434.652 338.509 497.714 280.002C569.451 213.447 644.867 189.265 761.148 184.756C825.043 182.278 853.049 171.272 928.388 113.081C1003.73 54.8892 1059.05 -20.9495 1240.79 40.0273Z" fill="#3DC5FF"/>
<mask id="mask6_65_2" style="mask-type:alpha" maskUnits="userSpaceOnUse" x="-64" y="17" width="1702" height="709">
<path d="M1240.79 40.0273C1422.53 101.004 1521.63 71.6519 1587.77 53.4983L1637.06 725.755L67.6847 648.217L-30.6566 564.402C-84.8413 577.016 -61.1892 570.282 -32.601 562.745L-30.6566 564.402C-5.21071 558.478 37.4011 548.288 104.729 531.91C368.1 467.844 434.646 338.509 497.709 280.002C569.445 213.447 644.861 189.265 761.142 184.756C825.037 182.278 853.043 171.272 928.382 113.081C1003.72 54.8891 1059.04 -20.9495 1240.79 40.0273Z" fill="url(#paint3_linear_65_2)"/>
</mask>
<g mask="url(#mask6_65_2)">
<g filter="url(#filter20_f_65_2)">
<path d="M1277.08 66.2208C1662.94 171.677 1674.25 -53.1018 1781.01 -199.027L1485.17 -226.093C1159.81 -127.573 504.507 77.1373 486.226 107.813C463.375 146.159 612.612 164.296 747.663 185.619C855.704 202.677 915.066 143.542 976.906 89.3481C1038.75 35.154 1174.14 20.4093 1277.08 66.2208Z" fill="#ACFFF5" fill-opacity="0.82"/>
</g>
</g>
<mask id="mask7_65_2" style="mask-type:alpha" maskUnits="userSpaceOnUse" x="275" y="74" width="2238" height="705">
<path d="M275.179 778.157L1883.76 764.319L2512.68 482.754L1278.66 74.3078L509.194 254.537L275.179 778.157Z" fill="black"/>
</mask>
<g mask="url(#mask7_65_2)">
<mask id="mask8_65_2" style="mask-type:alpha" maskUnits="userSpaceOnUse" x="4" y="-114" width="2285" height="999">
<path d="M2193.47 -113.723L2288.96 839.006L247.078 884.672C161.89 687.255 -5.76243 291.395 5.13623 287.291C16.035 283.186 1468.57 18.2382 2193.47 -113.723Z" fill="url(#paint4_linear_65_2)"/>
</mask>
<g mask="url(#mask8_65_2)">
<mask id="mask9_65_2" style="mask-type:alpha" maskUnits="userSpaceOnUse" x="23" y="28" width="2206" height="768">
<path d="M2228.61 654.166C2167.22 385.266 2088.79 42.2477 2087.95 28.704L23.3294 170.258L163.989 795.719L2228.61 654.166Z" fill="url(#paint5_linear_65_2)"/>
</mask>
<g mask="url(#mask9_65_2)">
<path d="M1200.11 195.027C1037.99 206.142 923.355 311.813 942.776 398.171C962.197 484.529 1053.31 593.359 1227.24 581.434C1313.44 575.525 1431.07 626.078 1523.81 576.052C1618.21 525.128 1568.02 408.971 1558.22 365.407C1538.8 279.049 1362.22 183.912 1200.11 195.027Z" fill="#3DFFF3"/>
<g filter="url(#filter21_f_65_2)">
<path d="M1200.92 196.462C1014.64 209.234 905.372 325.297 926.93 421.156C948.487 517.015 1047.06 637.994 1233.34 625.222C1325.65 618.893 1452.7 677.781 1551.64 622.526C1652.36 566.278 1597.57 437.279 1586.69 388.923C1565.14 293.064 1387.2 183.69 1200.92 196.462Z" fill="#3DFFF3"/>
</g>
<g filter="url(#filter22_f_65_2)">
<path d="M1198.19 211.357C1106.98 179.152 842.46 338.793 862.921 429.773C883.381 520.753 993.479 634.441 1214.12 619.314C1323.46 611.817 1472.33 674.375 1592.05 620.162C1713.91 564.976 1654.21 435.256 1643.89 389.361C1623.43 298.38 1311.86 157.076 1198.19 211.357Z" fill="#3DFFF3"/>
</g>
<g filter="url(#filter23_f_65_2)">
<path d="M1185.21 248.87C949.407 286.674 775.457 413.009 798.322 514.68C821.186 616.35 968.017 717.89 1201.72 701.866C1317.53 693.926 1491.33 794.529 1617.54 734.465C1746.02 673.323 1682.98 536.84 1671.45 485.552C1648.59 383.881 1458.37 205.077 1185.21 248.87Z" fill="#3DFFF3"/>
</g>
<g filter="url(#filter24_f_65_2)">
<path d="M1057.03 259.86C903.767 314.769 567.845 469.956 591.396 574.678C614.946 679.399 1260.9 703.855 1512.54 686.602C1637.24 678.052 1797.64 707.637 1934.06 645.33C2072.94 581.905 1874.18 462.739 1716.79 357.949C1507.78 218.796 1203.28 166.284 1057.03 259.86Z" fill="#3DFFF3"/>
</g>
<g filter="url(#filter25_f_65_2)">
<path d="M1226.23 276.665C966.18 294.495 515.624 548.731 539.712 655.84C563.799 762.949 1064.35 775.085 1324.39 757.255C1453.26 748.42 1817.8 810.354 1958.91 746.519C2102.56 681.538 1997.34 605.593 1985.19 551.562C1961.1 444.453 1486.27 258.836 1226.23 276.665Z" fill="#3DFFF3"/>
</g>
<g filter="url(#filter26_f_65_2)">
<path d="M1226.23 276.665C966.18 294.495 515.624 548.731 539.712 655.84C563.799 762.949 1064.35 775.085 1324.39 757.255C1453.26 748.42 1817.8 810.354 1958.91 746.519C2102.56 681.538 1997.34 605.593 1985.19 551.562C1961.1 444.453 1486.27 258.836 1226.23 276.665Z" fill="#3DFFF3"/>
</g>
<g filter="url(#filter27_f_65_2)">
<path d="M1226.23 276.665C966.18 294.495 515.624 548.731 539.712 655.84C563.799 762.949 1064.35 775.085 1324.39 757.255C1453.26 748.42 1817.8 810.354 1958.91 746.519C2102.56 681.538 1997.34 605.593 1985.19 551.562C1961.1 444.453 1486.27 258.836 1226.23 276.665Z" fill="#3DFFF3"/>
</g>
<g filter="url(#filter28_f_65_2)">
<path d="M1226.23 276.665C966.18 294.495 515.624 548.731 539.712 655.84C563.799 762.949 1064.35 775.085 1324.39 757.255C1453.26 748.42 1817.8 810.354 1958.91 746.519C2102.56 681.538 1997.34 605.593 1985.19 551.562C1961.1 444.453 1486.27 258.836 1226.23 276.665Z" fill="#3DFFF3"/>
</g>
<g filter="url(#filter29_f_65_2)">
<path d="M1196.29 196.779C968.753 212.38 804.608 366.957 828.696 474.066C852.783 581.175 997.715 688.814 1225.26 673.214C1338.01 665.483 1520.8 679.928 1642.77 617.405C1766.93 553.759 1689.08 439.879 1676.93 385.848C1652.84 278.739 1423.83 181.179 1196.29 196.779Z" fill="#3DFFF3"/>
</g>
</g>
</g>
</g>
<g filter="url(#filter30_f_65_2)">
<path d="M-298.358 437.45C-168.598 426.107 -155.624 640.255 339.142 499.387C647.238 365.435 852.177 314.284 1153.94 334.709C1266.49 342.327 1406.02 221.315 1507.4 117.782C1608.79 14.2494 1560.14 754.855 1560.14 754.855L-351.751 966.887L-298.358 437.45Z" fill="#4DFFDF"/>
</g>
<g filter="url(#filter31_f_65_2)">
<path d="M1237.35 340.215C1288.86 328.231 1386.98 320.604 1529.25 366.362L1529.25 894.75L-3.86533 894.75L-26.9956 684.968C-67.4828 692.718 -49.1993 688.287 -27.169 683.395L-26.9956 684.968C-7.37493 681.212 26.0481 674.596 79.5359 663.784C284.36 622.385 340.39 524.942 391.065 481.844C448.711 432.819 507.582 416.477 597.116 416.477C646.314 416.477 668.253 408.851 728.351 366.362C788.449 323.873 833.829 267.221 971.196 319.515C1108.56 371.809 1185.83 352.199 1237.35 340.215Z" fill="white"/>
</g>
<g opacity="0.5" filter="url(#filter32_f_65_2)">
<path d="M298.758 676.36C47.3147 767.515 -180.619 875.292 -202.688 819.597C-224.757 763.902 -32.6028 565.825 218.841 474.671C470.284 383.517 692.009 354.771 714.078 410.466C736.147 466.162 550.202 585.206 298.758 676.36Z" fill="white"/>
</g>
<g filter="url(#filter33_f_65_2)">
<path d="M-203.999 801.026V1153.5H1570.5V436.5L-203.999 801.026Z" fill="white"/>
</g>
</g>
</g>
<defs>
<filter id="filter0_f_65_2" x="-296.323" y="32.7651" width="2134.11" height="1466.59" filterUnits="userSpaceOnUse" color-interpolation-filters="sRGB">
<feFlood flood-opacity="0" result="BackgroundImageFix"/>
<feBlend mode="normal" in="SourceGraphic" in2="BackgroundImageFix" result="shape"/>
<feGaussianBlur stdDeviation="38.1358" result="effect1_foregroundBlur_65_2"/>
</filter>
<filter id="filter1_f_65_2" x="-367.512" y="-62.7576" width="2310" height="1612.31" filterUnits="userSpaceOnUse" color-interpolation-filters="sRGB">
<feFlood flood-opacity="0" result="BackgroundImageFix"/>
<feBlend mode="normal" in="SourceGraphic" in2="BackgroundImageFix" result="shape"/>
<feGaussianBlur stdDeviation="73.7292" result="effect1_foregroundBlur_65_2"/>
</filter>
<filter id="filter2_f_65_2" x="-367.508" y="-62.5106" width="2279.21" height="1587.89" filterUnits="userSpaceOnUse" color-interpolation-filters="sRGB">
<feFlood flood-opacity="0" result="BackgroundImageFix"/>
<feBlend mode="normal" in="SourceGraphic" in2="BackgroundImageFix" result="shape"/>
<feGaussianBlur stdDeviation="73.7292" result="effect1_foregroundBlur_65_2"/>
</filter>
<filter id="filter3_f_65_2" x="-387.848" y="-82.8506" width="2409.86" height="1622.72" filterUnits="userSpaceOnUse" color-interpolation-filters="sRGB">
<feFlood flood-opacity="0" result="BackgroundImageFix"/>
<feBlend mode="normal" in="SourceGraphic" in2="BackgroundImageFix" result="shape"/>
<feGaussianBlur stdDeviation="83.8987" result="effect1_foregroundBlur_65_2"/>
</filter>
<filter id="filter4_f_65_2" x="-56.75" y="-34.9995" width="835" height="336.791" filterUnits="userSpaceOnUse" color-interpolation-filters="sRGB">
<feFlood flood-opacity="0" result="BackgroundImageFix"/>
<feBlend mode="normal" in="SourceGraphic" in2="BackgroundImageFix" result="shape"/>
<feGaussianBlur stdDeviation="34" result="effect1_foregroundBlur_65_2"/>
</filter>
<filter id="filter5_f_65_2" x="16.4528" y="235.551" width="698.208" height="462.065" filterUnits="userSpaceOnUse" color-interpolation-filters="sRGB">
<feFlood flood-opacity="0" result="BackgroundImageFix"/>
<feBlend mode="normal" in="SourceGraphic" in2="BackgroundImageFix" result="shape"/>
<feGaussianBlur stdDeviation="2.7792" result="effect1_foregroundBlur_65_2"/>
</filter>
<filter id="filter6_f_65_2" x="-59.8812" y="225.511" width="844.693" height="482.094" filterUnits="userSpaceOnUse" color-interpolation-filters="sRGB">
<feFlood flood-opacity="0" result="BackgroundImageFix"/>
<feBlend mode="normal" in="SourceGraphic" in2="BackgroundImageFix" result="shape"/>
<feGaussianBlur stdDeviation="9.7272" result="effect1_foregroundBlur_65_2"/>
</filter>
<filter id="filter7_f_65_2" x="-133.713" y="259.968" width="956.336" height="567.182" filterUnits="userSpaceOnUse" color-interpolation-filters="sRGB">
<feFlood flood-opacity="0" result="BackgroundImageFix"/>
<feBlend mode="normal" in="SourceGraphic" in2="BackgroundImageFix" result="shape"/>
<feGaussianBlur stdDeviation="13.896" result="effect1_foregroundBlur_65_2"/>
</filter>
<filter id="filter8_f_65_2" x="-387.043" y="183.363" width="1540.81" height="628.999" filterUnits="userSpaceOnUse" color-interpolation-filters="sRGB">
<feFlood flood-opacity="0" result="BackgroundImageFix"/>
<feBlend mode="normal" in="SourceGraphic" in2="BackgroundImageFix" result="shape"/>
<feGaussianBlur stdDeviation="37.5192" result="effect1_foregroundBlur_65_2"/>
</filter>
<filter id="filter9_f_65_2" x="-574.049" y="110.529" width="1916.15" height="921.503" filterUnits="userSpaceOnUse" color-interpolation-filters="sRGB">
<feFlood flood-opacity="0" result="BackgroundImageFix"/>
<feBlend mode="normal" in="SourceGraphic" in2="BackgroundImageFix" result="shape"/>
<feGaussianBlur stdDeviation="105.305" result="effect1_foregroundBlur_65_2"/>
</filter>
<filter id="filter10_f_65_2" x="-574.049" y="110.529" width="1916.15" height="921.503" filterUnits="userSpaceOnUse" color-interpolation-filters="sRGB">
<feFlood flood-opacity="0" result="BackgroundImageFix"/>
<feBlend mode="normal" in="SourceGraphic" in2="BackgroundImageFix" result="shape"/>
<feGaussianBlur stdDeviation="105.305" result="effect1_foregroundBlur_65_2"/>
</filter>
<filter id="filter11_f_65_2" x="-574.049" y="110.529" width="1916.15" height="921.503" filterUnits="userSpaceOnUse" color-interpolation-filters="sRGB">
<feFlood flood-opacity="0" result="BackgroundImageFix"/>
<feBlend mode="normal" in="SourceGraphic" in2="BackgroundImageFix" result="shape"/>
<feGaussianBlur stdDeviation="105.305" result="effect1_foregroundBlur_65_2"/>
</filter>
<filter id="filter12_f_65_2" x="-574.049" y="110.529" width="1916.15" height="921.503" filterUnits="userSpaceOnUse" color-interpolation-filters="sRGB">
<feFlood flood-opacity="0" result="BackgroundImageFix"/>
<feBlend mode="normal" in="SourceGraphic" in2="BackgroundImageFix" result="shape"/>
<feGaussianBlur stdDeviation="105.305" result="effect1_foregroundBlur_65_2"/>
</filter>
<filter id="filter13_f_65_2" x="-162.029" y="154.646" width="1058.12" height="651.908" filterUnits="userSpaceOnUse" color-interpolation-filters="sRGB">
<feFlood flood-opacity="0" result="BackgroundImageFix"/>
<feBlend mode="normal" in="SourceGraphic" in2="BackgroundImageFix" result="shape"/>
<feGaussianBlur stdDeviation="43.0776" result="effect1_foregroundBlur_65_2"/>
</filter>
<filter id="filter14_f_65_2" x="141.064" y="54.168" width="1196.47" height="1074.45" filterUnits="userSpaceOnUse" color-interpolation-filters="sRGB">
<feFlood flood-opacity="0" result="BackgroundImageFix"/>
<feBlend mode="normal" in="SourceGraphic" in2="BackgroundImageFix" result="shape"/>
<feGaussianBlur stdDeviation="134" result="effect1_foregroundBlur_65_2"/>
</filter>
<filter id="filter15_f_65_2" x="-122.068" y="117.027" width="2187.47" height="794.641" filterUnits="userSpaceOnUse" color-interpolation-filters="sRGB">
<feFlood flood-opacity="0" result="BackgroundImageFix"/>
<feBlend mode="normal" in="SourceGraphic" in2="BackgroundImageFix" result="shape"/>
<feGaussianBlur stdDeviation="29.4454" result="effect1_foregroundBlur_65_2"/>
</filter>
<filter id="filter16_f_65_2" x="-155.594" y="83.5675" width="2254.86" height="856.812" filterUnits="userSpaceOnUse" color-interpolation-filters="sRGB">
<feFlood flood-opacity="0" result="BackgroundImageFix"/>
<feBlend mode="normal" in="SourceGraphic" in2="BackgroundImageFix" result="shape"/>
<feGaussianBlur stdDeviation="46.175" result="effect1_foregroundBlur_65_2"/>
</filter>
<filter id="filter17_f_65_2" x="-234.597" y="13.9742" width="2400.87" height="1068.19" filterUnits="userSpaceOnUse" color-interpolation-filters="sRGB">
<feFlood flood-opacity="0" result="BackgroundImageFix"/>
<feBlend mode="normal" in="SourceGraphic" in2="BackgroundImageFix" result="shape"/>
<feGaussianBlur stdDeviation="86.175" result="effect1_foregroundBlur_65_2"/>
</filter>
<filter id="filter18_f_65_2" x="-321.879" y="-92.3626" width="2566.5" height="1236.15" filterUnits="userSpaceOnUse" color-interpolation-filters="sRGB">
<feFlood flood-opacity="0" result="BackgroundImageFix"/>
<feBlend mode="normal" in="SourceGraphic" in2="BackgroundImageFix" result="shape"/>
<feGaussianBlur stdDeviation="134.14" result="effect1_foregroundBlur_65_2"/>
</filter>
<filter id="filter19_f_65_2" x="-171.283" y="64.6794" width="2258.86" height="898.894" filterUnits="userSpaceOnUse" color-interpolation-filters="sRGB">
<feFlood flood-opacity="0" result="BackgroundImageFix"/>
<feBlend mode="normal" in="SourceGraphic" in2="BackgroundImageFix" result="shape"/>
<feGaussianBlur stdDeviation="55.619" result="effect1_foregroundBlur_65_2"/>
</filter>
<filter id="filter20_f_65_2" x="415.893" y="-294.093" width="1433.12" height="550.702" filterUnits="userSpaceOnUse" color-interpolation-filters="sRGB">
<feFlood flood-opacity="0" result="BackgroundImageFix"/>
<feBlend mode="normal" in="SourceGraphic" in2="BackgroundImageFix" result="shape"/>
<feGaussianBlur stdDeviation="34" result="effect1_foregroundBlur_65_2"/>
</filter>
<filter id="filter21_f_65_2" x="918.676" y="189.882" width="698.208" height="462.065" filterUnits="userSpaceOnUse" color-interpolation-filters="sRGB">
<feFlood flood-opacity="0" result="BackgroundImageFix"/>
<feBlend mode="normal" in="SourceGraphic" in2="BackgroundImageFix" result="shape"/>
<feGaussianBlur stdDeviation="2.7792" result="effect1_foregroundBlur_65_2"/>
</filter>
<filter id="filter22_f_65_2" x="842.342" y="179.842" width="844.693" height="482.094" filterUnits="userSpaceOnUse" color-interpolation-filters="sRGB">
<feFlood flood-opacity="0" result="BackgroundImageFix"/>
<feBlend mode="normal" in="SourceGraphic" in2="BackgroundImageFix" result="shape"/>
<feGaussianBlur stdDeviation="9.7272" result="effect1_foregroundBlur_65_2"/>
</filter>
<filter id="filter23_f_65_2" x="768.51" y="214.298" width="956.336" height="567.182" filterUnits="userSpaceOnUse" color-interpolation-filters="sRGB">
<feFlood flood-opacity="0" result="BackgroundImageFix"/>
<feBlend mode="normal" in="SourceGraphic" in2="BackgroundImageFix" result="shape"/>
<feGaussianBlur stdDeviation="13.896" result="effect1_foregroundBlur_65_2"/>
</filter>
<filter id="filter24_f_65_2" x="515.18" y="137.694" width="1540.81" height="628.999" filterUnits="userSpaceOnUse" color-interpolation-filters="sRGB">
<feFlood flood-opacity="0" result="BackgroundImageFix"/>
<feBlend mode="normal" in="SourceGraphic" in2="BackgroundImageFix" result="shape"/>
<feGaussianBlur stdDeviation="37.5192" result="effect1_foregroundBlur_65_2"/>
</filter>
<filter id="filter25_f_65_2" x="328.174" y="64.8595" width="1916.15" height="921.503" filterUnits="userSpaceOnUse" color-interpolation-filters="sRGB">
<feFlood flood-opacity="0" result="BackgroundImageFix"/>
<feBlend mode="normal" in="SourceGraphic" in2="BackgroundImageFix" result="shape"/>
<feGaussianBlur stdDeviation="105.305" result="effect1_foregroundBlur_65_2"/>
</filter>
<filter id="filter26_f_65_2" x="328.174" y="64.8595" width="1916.15" height="921.503" filterUnits="userSpaceOnUse" color-interpolation-filters="sRGB">
<feFlood flood-opacity="0" result="BackgroundImageFix"/>
<feBlend mode="normal" in="SourceGraphic" in2="BackgroundImageFix" result="shape"/>
<feGaussianBlur stdDeviation="105.305" result="effect1_foregroundBlur_65_2"/>
</filter>
<filter id="filter27_f_65_2" x="328.174" y="64.8595" width="1916.15" height="921.503" filterUnits="userSpaceOnUse" color-interpolation-filters="sRGB">
<feFlood flood-opacity="0" result="BackgroundImageFix"/>
<feBlend mode="normal" in="SourceGraphic" in2="BackgroundImageFix" result="shape"/>
<feGaussianBlur stdDeviation="105.305" result="effect1_foregroundBlur_65_2"/>
</filter>
<filter id="filter28_f_65_2" x="328.174" y="64.8595" width="1916.15" height="921.503" filterUnits="userSpaceOnUse" color-interpolation-filters="sRGB">
<feFlood flood-opacity="0" result="BackgroundImageFix"/>
<feBlend mode="normal" in="SourceGraphic" in2="BackgroundImageFix" result="shape"/>
<feGaussianBlur stdDeviation="105.305" result="effect1_foregroundBlur_65_2"/>
</filter>
<filter id="filter29_f_65_2" x="740.195" y="108.976" width="1058.12" height="651.908" filterUnits="userSpaceOnUse" color-interpolation-filters="sRGB">
<feFlood flood-opacity="0" result="BackgroundImageFix"/>
<feBlend mode="normal" in="SourceGraphic" in2="BackgroundImageFix" result="shape"/>
<feGaussianBlur stdDeviation="43.0776" result="effect1_foregroundBlur_65_2"/>
</filter>
<filter id="filter30_f_65_2" x="-619.751" y="-160.143" width="2459.56" height="1395.03" filterUnits="userSpaceOnUse" color-interpolation-filters="sRGB">
<feFlood flood-opacity="0" result="BackgroundImageFix"/>
<feBlend mode="normal" in="SourceGraphic" in2="BackgroundImageFix" result="shape"/>
<feGaussianBlur stdDeviation="134" result="effect1_foregroundBlur_65_2"/>
</filter>
<filter id="filter31_f_65_2" x="-334.309" y="15.1905" width="2146.87" height="1162.87" filterUnits="userSpaceOnUse" color-interpolation-filters="sRGB">
<feFlood flood-opacity="0" result="BackgroundImageFix"/>
<feBlend mode="normal" in="SourceGraphic" in2="BackgroundImageFix" result="shape"/>
<feGaussianBlur stdDeviation="141.655" result="effect1_foregroundBlur_65_2"/>
</filter>
<filter id="filter32_f_65_2" x="-364.415" y="222.069" width="1240.27" height="772.806" filterUnits="userSpaceOnUse" color-interpolation-filters="sRGB">
<feFlood flood-opacity="0" result="BackgroundImageFix"/>
<feBlend mode="normal" in="SourceGraphic" in2="BackgroundImageFix" result="shape"/>
<feGaussianBlur stdDeviation="80" result="effect1_foregroundBlur_65_2"/>
</filter>
<filter id="filter33_f_65_2" x="-487.309" y="153.19" width="2341.12" height="1283.62" filterUnits="userSpaceOnUse" color-interpolation-filters="sRGB">
<feFlood flood-opacity="0" result="BackgroundImageFix"/>
<feBlend mode="normal" in="SourceGraphic" in2="BackgroundImageFix" result="shape"/>
<feGaussianBlur stdDeviation="141.655" result="effect1_foregroundBlur_65_2"/>
</filter>
<linearGradient id="paint0_linear_65_2" x1="-22.3764" y1="662.486" x2="1519.39" y2="628.659" gradientUnits="userSpaceOnUse">
<stop offset="0.12882" stop-color="#C4C4C4" stop-opacity="0"/>
<stop offset="0.496484" stop-color="#C4C4C4"/>
<stop offset="0.606591" stop-color="#C4C4C4"/>
<stop offset="1" stop-color="#C4C4C4" stop-opacity="0"/>
</linearGradient>
<linearGradient id="paint1_linear_65_2" x1="1279" y1="530.445" x2="-396.902" y2="1117.73" gradientUnits="userSpaceOnUse">
<stop stop-color="#C4C4C4" stop-opacity="0"/>
<stop offset="0.430547" stop-color="#C4C4C4"/>
<stop offset="0.498519" stop-color="#C4C4C4"/>
<stop offset="1" stop-color="#C4C4C4" stop-opacity="0"/>
</linearGradient>
<linearGradient id="paint2_linear_65_2" x1="302.771" y1="255.256" x2="317.185" y2="775.815" gradientUnits="userSpaceOnUse">
<stop stop-color="#C4C4C4"/>
<stop offset="1" stop-color="#C4C4C4" stop-opacity="0"/>
</linearGradient>
<linearGradient id="paint3_linear_65_2" x1="1938.46" y1="239.719" x2="345.855" y2="487.923" gradientUnits="userSpaceOnUse">
<stop stop-color="#CD2F8D"/>
<stop offset="0.536458" stop-color="#F72D55"/>
<stop offset="1" stop-color="#FF974D"/>
</linearGradient>
<linearGradient id="paint4_linear_65_2" x1="2181.22" y1="484.774" x2="505.324" y2="1072.06" gradientUnits="userSpaceOnUse">
<stop stop-color="#C4C4C4" stop-opacity="0"/>
<stop offset="0.430547" stop-color="#C4C4C4"/>
<stop offset="0.498519" stop-color="#C4C4C4"/>
<stop offset="1" stop-color="#C4C4C4" stop-opacity="0"/>
</linearGradient>
<linearGradient id="paint5_linear_65_2" x1="1205" y1="209.585" x2="1219.41" y2="730.145" gradientUnits="userSpaceOnUse">
<stop stop-color="#C4C4C4"/>
<stop offset="1" stop-color="#C4C4C4" stop-opacity="0"/>
</linearGradient>
<clipPath id="clip0_65_2">
<rect width="1440" height="900" fill="white"/>
</clipPath>
</defs>
</svg>
