<svg width="897" height="809" viewBox="0 0 897 809" fill="none" xmlns="http://www.w3.org/2000/svg">
<mask id="mask0_39_1918" style="mask-type:alpha" maskUnits="userSpaceOnUse" x="135" y="67" width="632" height="557">
<path d="M766.392 263.949L472.726 67.8501L209.89 255.197L135.387 334.652L152.522 544.519L286.751 623.747L557.652 430.088L766.392 263.949Z" fill="url(#paint0_linear_39_1918)"/>
</mask>
<g mask="url(#mask0_39_1918)">
</g>
<mask id="mask1_39_1918" style="mask-type:alpha" maskUnits="userSpaceOnUse" x="41" y="31" width="694" height="618">
<path d="M265.122 648.486C168.986 527.589 46.3755 373.346 41.0836 367.685L510.88 31.8439L734.918 312.645L265.122 648.486Z" fill="url(#paint1_linear_39_1918)"/>
</mask>
<g mask="url(#mask1_39_1918)">
<path d="M269.144 264.927C322.131 227.049 401.185 238.447 432.118 277.217C463.051 315.988 482.196 382.201 425.346 422.841C397.173 442.98 383.645 493.35 334.77 497.971C285.017 502.674 250.576 444.257 234.972 424.699C204.038 385.929 216.157 302.806 269.144 264.927Z" fill="#43BBFF"/>
<g filter="url(#filter0_f_39_1918)">
<path d="M271.157 268.702C327.985 228.078 398.312 236.177 424.902 269.503C451.491 302.829 464.944 361.891 408.117 402.514C379.956 422.645 364.229 470.233 317.531 477.554C269.995 485.008 241.475 434.019 228.062 417.208C201.472 383.882 214.33 309.326 271.157 268.702Z" fill="#43BBFF"/>
</g>
<g filter="url(#filter1_f_39_1918)">
<path d="M272.879 267.472C336.572 221.941 418.719 235.184 451.5 276.271C484.282 317.358 503.27 388.455 439.578 433.987C408.016 456.55 395.513 516.307 341.689 522.653C286.899 529.114 248.097 463.396 231.56 442.67C198.779 401.583 209.187 313.004 272.879 267.472Z" fill="#43BBFF"/>
</g>
<g filter="url(#filter2_f_39_1918)">
<path d="M284.112 267.083C370.79 220.946 478.444 227.672 516.81 275.758C555.176 323.845 556.74 404.361 480.354 458.967C442.501 486.027 435.655 573.222 371.577 581.425C306.348 589.776 264.431 516.75 245.077 492.493C206.711 444.406 183.701 320.53 284.112 267.083Z" fill="#43BBFF"/>
</g>
<g filter="url(#filter3_f_39_1918)">
<path d="M326.134 267.604C408.382 208.808 528.619 220.146 566.13 267.16C603.641 314.175 601.217 395.722 518.969 454.518C478.211 483.655 443.039 536.974 375.936 548.178C307.627 559.584 267.675 487.449 248.753 463.732C211.242 416.718 243.886 326.4 326.134 267.604Z" fill="#43BBFF"/>
</g>
<g filter="url(#filter4_f_39_1918)">
<path d="M303.09 301.54C377.461 248.374 492.044 265.972 530.41 314.059C568.776 362.146 571.393 441.909 497.022 495.075C460.167 521.421 425.624 566.201 362.733 573.556C298.711 581.044 256.52 508.214 237.166 483.957C198.8 435.87 228.718 354.705 303.09 301.54Z" fill="#43BBFF"/>
</g>
</g>
<mask id="mask2_39_1918" style="mask-type:alpha" maskUnits="userSpaceOnUse" x="146" y="125" width="550" height="518">
<path d="M322.177 125.494L146.862 416.89L339.058 596.448L419.894 642.532L625.396 585.82L695.437 454.871L493.887 266.78L322.177 125.494Z" fill="url(#paint2_linear_39_1918)"/>
</mask>
<g mask="url(#mask2_39_1918)">
<mask id="mask3_39_1918" style="mask-type:alpha" maskUnits="userSpaceOnUse" x="110" y="138" width="599" height="570">
<path d="M708.78 476.29C596.394 583.9 473.682 701.311 468.46 707.02L110.06 369.712L350.38 138.982L708.78 476.29Z" fill="url(#paint3_linear_39_1918)"/>
</mask>
<g mask="url(#mask3_39_1918)">
<path d="M348.316 547.137C308.894 510.347 315.944 440.824 351.98 406.227C388.016 371.629 451.264 341.118 493.56 380.591C514.52 400.151 564.058 400.773 571.016 441.241C578.098 482.437 523.186 524.244 505.008 541.697C468.972 576.295 387.738 583.926 348.316 547.137Z" fill="#1FFFC9"/>
<g filter="url(#filter5_f_39_1918)">
<path d="M351.876 544.614C309.597 505.158 310.545 446.959 338.522 420.099C366.499 393.238 419.165 372.875 461.444 412.331C482.395 431.884 527.263 436.97 538.224 473.576C549.381 510.839 505.462 542.096 491.349 555.646C463.372 582.507 394.155 584.07 351.876 544.614Z" fill="#1FFFC9"/>
</g>
<g filter="url(#filter6_f_39_1918)">
<path d="M350.597 543.419C303.21 499.197 307.829 430.553 342.375 397.386C376.92 364.219 440.133 337.378 487.52 381.6C511.002 403.515 566.724 403.999 577.42 446.552C588.308 489.869 531.813 531.883 514.387 548.615C479.841 581.781 397.983 587.642 350.597 543.419Z" fill="#1FFFC9"/>
</g>
<g filter="url(#filter7_f_39_1918)">
<path d="M356.393 527.464C307.255 463.872 308.324 371.092 353.018 328.181C397.713 285.27 475.724 266.593 532.555 319.629C560.718 345.911 645.633 332.928 656.836 385.522C668.24 439.061 583.235 514.285 560.689 535.931C515.994 578.843 413.317 601.132 356.393 527.464Z" fill="#1FFFC9"/>
</g>
<g filter="url(#filter8_f_39_1918)">
<path d="M352.395 502.288C291.203 445.182 291.738 336.655 335.436 294.7C379.134 252.746 458.347 237.229 519.539 294.335C549.863 322.634 603.358 340.982 617.625 395.496C632.147 450.989 559.423 554.671 537.379 575.835C493.681 617.79 413.587 559.394 352.395 502.288Z" fill="#1FFFC9"/>
</g>
<g filter="url(#filter9_f_39_1918)">
<path d="M341.651 459.237C278.415 400.223 282.873 292.871 327.568 249.96C372.262 207.049 453.621 191.495 516.857 250.509C548.194 279.753 534.518 381.471 549.492 437.584C564.734 494.706 495.159 545.189 472.613 566.835C427.918 609.746 404.888 518.25 341.651 459.237Z" fill="#1FFFC9"/>
</g>
<g filter="url(#filter10_f_39_1918)">
<path d="M382.107 510.447C326.775 458.81 338.038 357.809 382.733 314.897C427.427 271.986 504.656 252.578 559.987 304.215C587.407 329.804 632.589 349.459 642.908 401.229C653.414 453.929 584.915 505.418 562.369 527.064C517.675 569.975 437.439 562.084 382.107 510.447Z" fill="#1FFFC9"/>
</g>
</g>
</g>
<mask id="mask4_39_1918" style="mask-type:alpha" maskUnits="userSpaceOnUse" x="191" y="145" width="378" height="513">
<path d="M248.189 657.89L567.136 601.288L568.531 304.892L540.985 225.52L326.061 145.43L191.967 197.726L213.435 447.478L248.189 657.89Z" fill="url(#paint4_linear_39_1918)"/>
</mask>
<g mask="url(#mask4_39_1918)">
<mask id="mask5_39_1918" style="mask-type:alpha" maskUnits="userSpaceOnUse" x="196" y="164" width="383" height="498">
<path d="M196.331 174.84C345.372 163.552 534.642 165.468 542.024 164.441L578.367 610.568L246.823 661.151L196.331 174.84Z" fill="url(#paint5_linear_39_1918)"/>
</mask>
<g mask="url(#mask5_39_1918)">
<path d="M497.417 332.98C501.616 381.831 451.774 427.013 403.925 430.698C356.076 434.383 291.584 419.445 287.078 367.033C284.846 341.06 250.149 311.988 271.324 279.295C292.88 246.015 358.754 248.131 382.892 246.272C430.741 242.587 493.218 284.13 497.417 332.98Z" fill="#3757FF"/>
<g filter="url(#filter11_f_39_1918)">
<path d="M493.27 332.712C497.774 385.103 459.56 425.789 422.412 428.65C385.264 431.511 334.814 415.499 330.311 363.108C328.079 337.146 299.571 307.61 315.418 275.34C331.551 242.491 382.83 245.728 401.57 244.285C438.718 241.424 488.767 280.322 493.27 332.712Z" fill="#3757FF"/>
</g>
<g filter="url(#filter12_f_39_1918)">
<path d="M493.405 334.296C498.453 393.016 450.9 438.981 405.03 442.514C359.16 446.046 297.059 428.528 292.011 369.808C289.51 340.71 250.344 308.161 270.215 271.831C290.442 234.847 357.571 237.732 380.711 235.95C426.581 232.417 488.358 275.576 493.405 334.296Z" fill="#3757FF"/>
</g>
<g filter="url(#filter13_f_39_1918)">
<path d="M479.007 342.251C472.801 415.707 412.195 480.824 352.849 485.394C293.502 489.965 226.182 458.11 220.129 387.687C217.129 352.789 148.592 312.909 174.581 269.171C201.037 224.648 309.788 220.481 339.725 218.176C399.072 213.605 486.197 257.157 479.007 342.251Z" fill="#3757FF"/>
</g>
<g filter="url(#filter14_f_39_1918)">
<path d="M465.599 362.399C472.117 438.225 401.731 514.809 343.708 519.277C285.684 523.746 219.552 488.957 213.034 413.13C209.804 375.554 183.738 331.636 208.795 284.767C234.303 237.056 352.709 205.63 381.979 203.375C440.003 198.907 459.081 286.572 465.599 362.399Z" fill="#3757FF"/>
</g>
<g filter="url(#filter15_f_39_1918)">
<path d="M445.44 399.11C452.176 477.47 379.769 550.953 320.422 555.523C261.076 560.094 193.4 524.091 186.664 445.731C183.326 406.9 258.63 342.737 284.218 294.326C310.265 245.046 392.124 249.491 422.062 247.185C481.408 242.614 438.705 320.75 445.44 399.11Z" fill="#3757FF"/>
</g>
</g>
</g>
<defs>
<filter id="filter0_f_39_1918" x="210.809" y="237.293" width="240.973" height="244.979" filterUnits="userSpaceOnUse" color-interpolation-filters="sRGB">
<feFlood flood-opacity="0" result="BackgroundImageFix"/>
<feBlend mode="normal" in="SourceGraphic" in2="BackgroundImageFix" result="shape"/>
<feGaussianBlur stdDeviation="1.98949" result="effect1_foregroundBlur_39_1918"/>
</filter>
<filter id="filter1_f_39_1918" x="199.491" y="224.945" width="296.201" height="312.079" filterUnits="userSpaceOnUse" color-interpolation-filters="sRGB">
<feFlood flood-opacity="0" result="BackgroundImageFix"/>
<feBlend mode="normal" in="SourceGraphic" in2="BackgroundImageFix" result="shape"/>
<feGaussianBlur stdDeviation="6.96321" result="effect1_foregroundBlur_39_1918"/>
</filter>
<filter id="filter2_f_39_1918" x="192.482" y="215.957" width="370.04" height="386.025" filterUnits="userSpaceOnUse" color-interpolation-filters="sRGB">
<feFlood flood-opacity="0" result="BackgroundImageFix"/>
<feBlend mode="normal" in="SourceGraphic" in2="BackgroundImageFix" result="shape"/>
<feGaussianBlur stdDeviation="9.94745" result="effect1_foregroundBlur_39_1918"/>
</filter>
<filter id="filter3_f_39_1918" x="179.577" y="173.882" width="463.57" height="429.226" filterUnits="userSpaceOnUse" color-interpolation-filters="sRGB">
<feFlood flood-opacity="0" result="BackgroundImageFix"/>
<feBlend mode="normal" in="SourceGraphic" in2="BackgroundImageFix" result="shape"/>
<feGaussianBlur stdDeviation="26.8581" result="effect1_foregroundBlur_39_1918"/>
</filter>
<filter id="filter4_f_39_1918" x="158.753" y="207.332" width="459.715" height="428.436" filterUnits="userSpaceOnUse" color-interpolation-filters="sRGB">
<feFlood flood-opacity="0" result="BackgroundImageFix"/>
<feBlend mode="normal" in="SourceGraphic" in2="BackgroundImageFix" result="shape"/>
<feGaussianBlur stdDeviation="30.8371" result="effect1_foregroundBlur_39_1918"/>
</filter>
<filter id="filter5_f_39_1918" x="314.667" y="386.305" width="229.331" height="192.8" filterUnits="userSpaceOnUse" color-interpolation-filters="sRGB">
<feFlood flood-opacity="0" result="BackgroundImageFix"/>
<feBlend mode="normal" in="SourceGraphic" in2="BackgroundImageFix" result="shape"/>
<feGaussianBlur stdDeviation="1.98949" result="effect1_foregroundBlur_39_1918"/>
</filter>
<filter id="filter6_f_39_1918" x="301.82" y="344.49" width="290.909" height="244.475" filterUnits="userSpaceOnUse" color-interpolation-filters="sRGB">
<feFlood flood-opacity="0" result="BackgroundImageFix"/>
<feBlend mode="normal" in="SourceGraphic" in2="BackgroundImageFix" result="shape"/>
<feGaussianBlur stdDeviation="6.96321" result="effect1_foregroundBlur_39_1918"/>
</filter>
<filter id="filter7_f_39_1918" x="299.618" y="267.321" width="378.159" height="328.14" filterUnits="userSpaceOnUse" color-interpolation-filters="sRGB">
<feFlood flood-opacity="0" result="BackgroundImageFix"/>
<feBlend mode="normal" in="SourceGraphic" in2="BackgroundImageFix" result="shape"/>
<feGaussianBlur stdDeviation="9.94745" result="effect1_foregroundBlur_39_1918"/>
</filter>
<filter id="filter8_f_39_1918" x="250.623" y="203.418" width="422.619" height="440.406" filterUnits="userSpaceOnUse" color-interpolation-filters="sRGB">
<feFlood flood-opacity="0" result="BackgroundImageFix"/>
<feBlend mode="normal" in="SourceGraphic" in2="BackgroundImageFix" result="shape"/>
<feGaussianBlur stdDeviation="26.8581" result="effect1_foregroundBlur_39_1918"/>
</filter>
<filter id="filter9_f_39_1918" x="160.759" y="78.5118" width="524.19" height="632.7" filterUnits="userSpaceOnUse" color-interpolation-filters="sRGB">
<feFlood flood-opacity="0" result="BackgroundImageFix"/>
<feBlend mode="normal" in="SourceGraphic" in2="BackgroundImageFix" result="shape"/>
<feGaussianBlur stdDeviation="66.6479" result="effect1_foregroundBlur_39_1918"/>
</filter>
<filter id="filter10_f_39_1918" x="283.104" y="211.551" width="422.566" height="404.927" filterUnits="userSpaceOnUse" color-interpolation-filters="sRGB">
<feFlood flood-opacity="0" result="BackgroundImageFix"/>
<feBlend mode="normal" in="SourceGraphic" in2="BackgroundImageFix" result="shape"/>
<feGaussianBlur stdDeviation="30.8371" result="effect1_foregroundBlur_39_1918"/>
</filter>
<filter id="filter11_f_39_1918" x="302.957" y="236.448" width="198.364" height="200.208" filterUnits="userSpaceOnUse" color-interpolation-filters="sRGB">
<feFlood flood-opacity="0" result="BackgroundImageFix"/>
<feBlend mode="normal" in="SourceGraphic" in2="BackgroundImageFix" result="shape"/>
<feGaussianBlur stdDeviation="3.84414" result="effect1_foregroundBlur_39_1918"/>
</filter>
<filter id="filter12_f_39_1918" x="237.702" y="208.839" width="282.982" height="261.017" filterUnits="userSpaceOnUse" color-interpolation-filters="sRGB">
<feFlood flood-opacity="0" result="BackgroundImageFix"/>
<feBlend mode="normal" in="SourceGraphic" in2="BackgroundImageFix" result="shape"/>
<feGaussianBlur stdDeviation="13.4545" result="effect1_foregroundBlur_39_1918"/>
</filter>
<filter id="filter13_f_39_1918" x="130.269" y="179.408" width="387.598" height="344.857" filterUnits="userSpaceOnUse" color-interpolation-filters="sRGB">
<feFlood flood-opacity="0" result="BackgroundImageFix"/>
<feBlend mode="normal" in="SourceGraphic" in2="BackgroundImageFix" result="shape"/>
<feGaussianBlur stdDeviation="19.2207" result="effect1_foregroundBlur_39_1918"/>
</filter>
<filter id="filter14_f_39_1918" x="94.2302" y="99.4196" width="475.582" height="524.031" filterUnits="userSpaceOnUse" color-interpolation-filters="sRGB">
<feFlood flood-opacity="0" result="BackgroundImageFix"/>
<feBlend mode="normal" in="SourceGraphic" in2="BackgroundImageFix" result="shape"/>
<feGaussianBlur stdDeviation="51.8959" result="effect1_foregroundBlur_39_1918"/>
</filter>
<filter id="filter15_f_39_1918" x="-71.0009" y="-10.5637" width="782.617" height="824.03" filterUnits="userSpaceOnUse" color-interpolation-filters="sRGB">
<feFlood flood-opacity="0" result="BackgroundImageFix"/>
<feBlend mode="normal" in="SourceGraphic" in2="BackgroundImageFix" result="shape"/>
<feGaussianBlur stdDeviation="128.779" result="effect1_foregroundBlur_39_1918"/>
</filter>
<linearGradient id="paint0_linear_39_1918" x1="349.362" y1="367.786" x2="309.761" y2="540.848" gradientUnits="userSpaceOnUse">
<stop stop-color="#C4C4C4"/>
<stop offset="1" stop-color="#C4C4C4" stop-opacity="0"/>
</linearGradient>
<linearGradient id="paint1_linear_39_1918" x1="272.998" y1="271.752" x2="427.508" y2="474.157" gradientUnits="userSpaceOnUse">
<stop stop-color="#C4C4C4"/>
<stop offset="1" stop-color="#C4C4C4" stop-opacity="0"/>
</linearGradient>
<linearGradient id="paint2_linear_39_1918" x1="342.523" y1="432.184" x2="475.813" y2="549.911" gradientUnits="userSpaceOnUse">
<stop stop-color="#C4C4C4"/>
<stop offset="0.943414" stop-color="#C4C4C4" stop-opacity="0"/>
</linearGradient>
<linearGradient id="paint3_linear_39_1918" x1="390.912" y1="507.285" x2="546.669" y2="372.051" gradientUnits="userSpaceOnUse">
<stop stop-color="#C4C4C4"/>
<stop offset="1" stop-color="#C4C4C4" stop-opacity="0"/>
</linearGradient>
<linearGradient id="paint4_linear_39_1918" x1="427.373" y1="417.772" x2="402.526" y2="258.315" gradientUnits="userSpaceOnUse">
<stop stop-color="#C4C4C4"/>
<stop offset="0.943414" stop-color="#C4C4C4" stop-opacity="0"/>
</linearGradient>
<linearGradient id="paint5_linear_39_1918" x1="441.535" y1="336.597" x2="244.21" y2="331.72" gradientUnits="userSpaceOnUse">
<stop stop-color="#C4C4C4"/>
<stop offset="1" stop-color="#C4C4C4" stop-opacity="0"/>
</linearGradient>
</defs>
</svg>
